{"asset":{"version":"2.0","generator":"Blockbench 5.1.4 glTF exporter"},"scenes":[{"nodes":[2],"name":"blockbench_export"}],"scene":0,"nodes":[{"translation":[0,0.75,0],"name":"group2"},{"name":"group","children":[0]},{"name":"group","mesh":0,"children":[1],"skin":0}],"bufferViews":[{"buffer":0,"byteOffset":0,"byteLength":576,"target":34962,"byteStride":12},{"buffer":0,"byteOffset":576,"byteLength":576,"target":34962,"byteStride":12},{"buffer":0,"byteOffset":1152,"byteLength":384,"target":34962,"byteStride":8},{"buffer":0,"byteOffset":1536,"byteLength":384,"target":34962,"byteStride":8},{"buffer":0,"byteOffset":1920,"byteLength":768,"target":34962,"byteStride":16},{"buffer":0,"byteOffset":2688,"byteLength":144,"target":34963},{"buffer":0,"byteOffset":2832,"byteLength":128},{"buffer":0,"byteOffset":2960,"byteLength":24},{"buffer":0,"byteOffset":2984,"byteLength":72},{"buffer":0,"byteOffset":3056,"byteLength":12},{"buffer":0,"byteOffset":3068,"byteLength":36},{"buffer":0,"byteOffset":3104,"byteLength":16},{"buffer":0,"byteOffset":3120,"byteLength":64}],"buffers":[{"byteLength":3184,"uri":"data:application/octet-stream;base64,"}],"accessors":[{"bufferView":0,"componentType":5126,"count":48,"max":[0.5,1.25,0.5],"min":[-0.5,0,-0.5],"type":"VEC3"},{"bufferView":1,"componentType":5126,"count":48,"max":[1,1,1],"min":[-1,-1,-1],"type":"VEC3"},{"bufferView":2,"componentType":5126,"count":48,"max":[0.78125,0.78125],"min":[0,0],"type":"VEC2"},{"bufferView":3,"componentType":5123,"count":48,"max":[0,1,0,0],"min":[0,0,0,0],"type":"VEC4"},{"bufferView":4,"componentType":5126,"count":48,"max":[0,1,0,0],"min":[0,1,0,0],"type":"VEC4"},{"bufferView":5,"componentType":5123,"count":72,"max":[47],"min":[0],"type":"SCALAR"},{"bufferView":6,"componentType":5126,"count":2,"max":[1,0,0,0,0,1,0,0,0,0,1,0,0,0,0,1],"min":[1,0,0,0,0,1,0,0,0,0,1,0,0,-0.75,0,1],"type":"MAT4"},{"bufferView":7,"componentType":5126,"count":6,"max":[1.0416666269302368],"min":[0],"type":"SCALAR"},{"bufferView":8,"componentType":5126,"count":6,"max":[0,0,0],"min":[0,-0.010937499813735485,0],"type":"VEC3"},{"bufferView":9,"componentType":5126,"count":3,"max":[2],"min":[0],"type":"SCALAR"},{"bufferView":10,"componentType":5126,"count":3,"max":[0,0.75,0],"min":[0,0.0625,0],"type":"VEC3"},{"bufferView":11,"componentType":5126,"count":4,"max":[2],"min":[0],"type":"SCALAR"},{"bufferView":12,"componentType":5126,"count":4,"max":[0,0.8660253882408142,0,1],"min":[0,0,0,-1],"type":"VEC4"}],"materials":[{"pbrMetallicRoughness":{"metallicFactor":0,"roughnessFactor":1,"baseColorTexture":{"index":0}},"alphaMode":"MASK","alphaCutoff":0.05,"doubleSided":true}],"textures":[{"sampler":0,"source":0,"name":"texture"}],"samplers":[{"magFilter":9728,"minFilter":9728,"wrapS":33071,"wrapT":33071}],"images":[{"mimeType":"image/png","uri":"data:image/png;base64,"}],"meshes":[{"primitives":[{"mode":4,"attributes":{"POSITION":0,"NORMAL":1,"TEXCOORD_0":2,"JOINTS_0":3,"WEIGHTS_0":4},"indices":5,"material":0}]}],"skins":[{"inverseBindMatrices":6,"joints":[1,0],"skeleton":1}],"animations":[{"name":"animation","samplers":[{"input":7,"output":8,"interpolation":"LINEAR"},{"input":9,"output":10,"interpolation":"LINEAR"}],"channels":[{"sampler":0,"target":{"node":1,"path":"translation"}},{"sampler":1,"target":{"node":0,"path":"translation"}}]},{"name":"animation2","samplers":[{"input":11,"output":12,"interpolation":"LINEAR"}],"channels":[{"sampler":0,"target":{"node":0,"path":"rotation"}}]}]}