{
  "asset": {
    "version": "2.0",
    "generator": "VAW Import Studio V3 sample generator"
  },
  "scene": 0,
  "scenes": [
    {
      "name": "uv_checker_cube",
      "nodes": [
        0
      ]
    }
  ],
  "nodes": [
    {
      "name": "UVCheckerRoot",
      "mesh": 0
    }
  ],
  "meshes": [
    {
      "name": "checker_cube_mesh",
      "primitives": [
        {
          "attributes": {
            "POSITION": 0,
            "NORMAL": 1,
            "TEXCOORD_0": 2
          },
          "indices": 3,
          "material": 0
        }
      ]
    }
  ],
  "materials": [
    {
      "name": "uv_checker_material",
      "pbrMetallicRoughness": {
        "baseColorTexture": {
          "index": 0
        },
        "metallicFactor": 0,
        "roughnessFactor": 1
      },
      "doubleSided": true
    },
    {
      "name": "flame_debug_emissive",
      "pbrMetallicRoughness": {
        "baseColorFactor": [
          0.9,
          0.45,
          1,
          0.65
        ]
      },
      "emissiveFactor": [
        0.9,
        0.25,
        1
      ],
      "alphaMode": "BLEND",
      "doubleSided": true
    }
  ],
  "textures": [
    {
      "name": "uv_checker_texture",
      "sampler": 0,
      "source": 0
    }
  ],
  "images": [
    {
      "name": "uv_checker_texture",
      "uri": "textures/uv_checker.png"
    }
  ],
  "samplers": [
    {
      "magFilter": 9728,
      "minFilter": 9728,
      "wrapS": 33071,
      "wrapT": 33071
    }
  ],
  "accessors": [
    {
      "bufferView": 0,
      "componentType": 5126,
      "count": 24,
      "type": "VEC3",
      "min": [
        -0.5,
        -0.5,
        -0.5
      ],
      "max": [
        0.5,
        0.5,
        0.5
      ]
    },
    {
      "bufferView": 1,
      "componentType": 5126,
      "count": 24,
      "type": "VEC3",
      "min": [
        -1,
        -1,
        -1
      ],
      "max": [
        1,
        1,
        1
      ]
    },
    {
      "bufferView": 2,
      "componentType": 5126,
      "count": 24,
      "type": "VEC2",
      "min": [
        0,
        0
      ],
      "max": [
        1,
        1
      ]
    },
    {
      "bufferView": 3,
      "componentType": 5123,
      "count": 36,
      "type": "SCALAR",
      "min": [
        0
      ],
      "max": [
        23
      ]
    }
  ],
  "bufferViews": [
    {
      "buffer": 0,
      "byteOffset": 0,
      "byteLength": 288,
      "target": 34962
    },
    {
      "buffer": 0,
      "byteOffset": 288,
      "byteLength": 288,
      "target": 34962
    },
    {
      "buffer": 0,
      "byteOffset": 576,
      "byteLength": 192,
      "target": 34962
    },
    {
      "buffer": 0,
      "byteOffset": 768,
      "byteLength": 72,
      "target": 34963
    }
  ],
  "buffers": [
    {
      "uri": "uv_checker_cube.bin",
      "byteLength": 840
    }
  ],
  "animations": []
}