{
  "asset": {
    "version": "2.0",
    "generator": "VAW Import Studio V3 sample generator"
  },
  "scene": 0,
  "scenes": [
    {
      "name": "vector_thruster_gltf",
      "nodes": [
        0
      ]
    }
  ],
  "nodes": [
    {
      "name": "VectorThrusterRoot",
      "mesh": 0,
      "children": [
        1,
        5
      ]
    },
    {
      "name": "gimbalAssembly",
      "mesh": 1,
      "translation": [
        -0.32,
        0,
        0
      ],
      "children": [
        2,
        3,
        4
      ]
    },
    {
      "name": "flame_socket",
      "translation": [
        -0.86,
        0,
        0
      ]
    },
    {
      "name": "flame",
      "mesh": 2,
      "translation": [
        -0.78,
        0,
        0
      ]
    },
    {
      "name": "flameGlow",
      "mesh": 2,
      "translation": [
        -0.82,
        0,
        0
      ],
      "scale": [
        1.25,
        1.15,
        1.15
      ]
    },
    {
      "name": "attachment_socket",
      "translation": [
        0.5,
        0,
        0
      ]
    }
  ],
  "meshes": [
    {
      "name": "body_mesh",
      "primitives": [
        {
          "attributes": {
            "POSITION": 0,
            "NORMAL": 1,
            "TEXCOORD_0": 2
          },
          "indices": 3,
          "material": 0
        }
      ]
    },
    {
      "name": "gimbal_mesh",
      "primitives": [
        {
          "attributes": {
            "POSITION": 4,
            "NORMAL": 5,
            "TEXCOORD_0": 6
          },
          "indices": 7,
          "material": 0
        }
      ]
    },
    {
      "name": "flame_mesh",
      "primitives": [
        {
          "attributes": {
            "POSITION": 8,
            "NORMAL": 9,
            "TEXCOORD_0": 10
          },
          "indices": 11,
          "material": 1
        }
      ]
    }
  ],
  "materials": [
    {
      "name": "uv_checker_material",
      "pbrMetallicRoughness": {
        "baseColorTexture": {
          "index": 0
        },
        "metallicFactor": 0,
        "roughnessFactor": 1
      },
      "doubleSided": true
    },
    {
      "name": "flame_debug_emissive",
      "pbrMetallicRoughness": {
        "baseColorFactor": [
          0.9,
          0.45,
          1,
          0.65
        ]
      },
      "emissiveFactor": [
        0.9,
        0.25,
        1
      ],
      "alphaMode": "BLEND",
      "doubleSided": true
    }
  ],
  "textures": [
    {
      "name": "uv_checker_texture",
      "sampler": 0,
      "source": 0
    }
  ],
  "images": [
    {
      "name": "uv_checker_texture",
      "uri": "textures/vector_thruster_texture.png"
    }
  ],
  "samplers": [
    {
      "magFilter": 9728,
      "minFilter": 9728,
      "wrapS": 33071,
      "wrapT": 33071
    }
  ],
  "accessors": [
    {
      "bufferView": 0,
      "componentType": 5126,
      "count": 24,
      "type": "VEC3",
      "min": [
        -0.475,
        -0.475,
        -0.475
      ],
      "max": [
        0.475,
        0.475,
        0.475
      ]
    },
    {
      "bufferView": 1,
      "componentType": 5126,
      "count": 24,
      "type": "VEC3",
      "min": [
        -1,
        -1,
        -1
      ],
      "max": [
        1,
        1,
        1
      ]
    },
    {
      "bufferView": 2,
      "componentType": 5126,
      "count": 24,
      "type": "VEC2",
      "min": [
        0,
        0
      ],
      "max": [
        1,
        1
      ]
    },
    {
      "bufferView": 3,
      "componentType": 5123,
      "count": 36,
      "type": "SCALAR",
      "min": [
        0
      ],
      "max": [
        23
      ]
    },
    {
      "bufferView": 4,
      "componentType": 5126,
      "count": 24,
      "type": "VEC3",
      "min": [
        -0.3,
        -0.21,
        -0.21
      ],
      "max": [
        0.3,
        0.21,
        0.21
      ]
    },
    {
      "bufferView": 5,
      "componentType": 5126,
      "count": 24,
      "type": "VEC3",
      "min": [
        -1,
        -1,
        -1
      ],
      "max": [
        1,
        1,
        1
      ]
    },
    {
      "bufferView": 6,
      "componentType": 5126,
      "count": 24,
      "type": "VEC2",
      "min": [
        0,
        0
      ],
      "max": [
        1,
        1
      ]
    },
    {
      "bufferView": 7,
      "componentType": 5123,
      "count": 36,
      "type": "SCALAR",
      "min": [
        0
      ],
      "max": [
        23
      ]
    },
    {
      "bufferView": 8,
      "componentType": 5126,
      "count": 12,
      "type": "VEC3",
      "min": [
        -1.0,
        -0.35,
        -0.35
      ],
      "max": [
        0,
        0.35,
        0.35
      ]
    },
    {
      "bufferView": 9,
      "componentType": 5126,
      "count": 12,
      "type": "VEC3",
      "min": [
        0.3303504247281061,
        -0.9438583563660174,
        -0.9438583563660174
      ],
      "max": [
        0.3303504247281061,
        0.9438583563660174,
        0.9438583563660174
      ]
    },
    {
      "bufferView": 10,
      "componentType": 5126,
      "count": 12,
      "type": "VEC2",
      "min": [
        0,
        0
      ],
      "max": [
        1,
        1
      ]
    },
    {
      "bufferView": 11,
      "componentType": 5123,
      "count": 12,
      "type": "SCALAR",
      "min": [
        0
      ],
      "max": [
        11
      ]
    },
    {
      "bufferView": 12,
      "componentType": 5126,
      "count": 3,
      "type": "SCALAR",
      "min": [
        0
      ],
      "max": [
        1
      ]
    },
    {
      "bufferView": 13,
      "componentType": 5126,
      "count": 3,
      "type": "VEC4",
      "min": [
        0,
        0,
        0,
        0
      ],
      "max": [
        0,
        0,
        0.10452846326765347,
        1
      ]
    }
  ],
  "bufferViews": [
    {
      "buffer": 0,
      "byteOffset": 0,
      "byteLength": 288,
      "target": 34962
    },
    {
      "buffer": 0,
      "byteOffset": 288,
      "byteLength": 288,
      "target": 34962
    },
    {
      "buffer": 0,
      "byteOffset": 576,
      "byteLength": 192,
      "target": 34962
    },
    {
      "buffer": 0,
      "byteOffset": 768,
      "byteLength": 72,
      "target": 34963
    },
    {
      "buffer": 0,
      "byteOffset": 840,
      "byteLength": 288,
      "target": 34962
    },
    {
      "buffer": 0,
      "byteOffset": 1128,
      "byteLength": 288,
      "target": 34962
    },
    {
      "buffer": 0,
      "byteOffset": 1416,
      "byteLength": 192,
      "target": 34962
    },
    {
      "buffer": 0,
      "byteOffset": 1608,
      "byteLength": 72,
      "target": 34963
    },
    {
      "buffer": 0,
      "byteOffset": 1680,
      "byteLength": 144,
      "target": 34962
    },
    {
      "buffer": 0,
      "byteOffset": 1824,
      "byteLength": 144,
      "target": 34962
    },
    {
      "buffer": 0,
      "byteOffset": 1968,
      "byteLength": 96,
      "target": 34962
    },
    {
      "buffer": 0,
      "byteOffset": 2064,
      "byteLength": 24,
      "target": 34963
    },
    {
      "buffer": 0,
      "byteOffset": 2088,
      "byteLength": 12
    },
    {
      "buffer": 0,
      "byteOffset": 2100,
      "byteLength": 48
    }
  ],
  "buffers": [
    {
      "uri": "vector_thruster_gltf.bin",
      "byteLength": 2148
    }
  ],
  "animations": [
    {
      "name": "activate",
      "samplers": [
        {
          "input": 12,
          "output": 13,
          "interpolation": "LINEAR"
        }
      ],
      "channels": [
        {
          "sampler": 0,
          "target": {
            "node": 1,
            "path": "rotation"
          }
        }
      ]
    }
  ]
}